<svg width="1125" height="7503" viewBox="0 0 1125 7503" fill="none" xmlns="http://www.w3.org/2000/svg">
<path d="M1074.6 6269.26C963.654 6961.08 733.747 7234.37 0.958496 7503H1074.6V6269.26V5312.48V4414.46V3319.2V2375.02C1081.97 2318.24 1084.22 2270.08 1074.6 2224.12V1703.59V1078.33V587.5V-0.000488281L1046.5 -0.00146484L593.998 0C517.536 0 478.116 0.000488281 462.813 0.000488281L248.5 0C149 220.001 1051 587.5 1074.6 1078.33C1074.6 1324.8 997.425 1364.64 856.867 1451.81C629.548 1592.78 671.594 1765.61 856.867 1951.18C998.455 2061.68 1056.81 2139.15 1074.6 2224.12V2375.02C1074.6 2375.02 882.249 2690.76 534.024 2983.49C262.515 3244.71 306.559 3608.13 534.024 3751.43C919.504 3956.87 1017.79 4132.23 1074.6 4414.46C1065.63 4660.35 1053.13 4798.84 804.311 5064.9C659.036 5263.18 663.099 5374.38 804.311 5572.66C987.262 5828.21 1043.09 5981.41 1074.6 6269.26Z" fill="#99CDFF"/>
<path d="M1073 1077.62C1018.68 473.338 906.112 234.632 547.323 0H1073V1077.62V1913.32V2697.71V3654.37V4482.74C1073 4482.74 1073 4482.75 1073 4482.76V5065.53V5611.67V6582.99V7503C1073 7503 793.62 7195.11 598.788 6982.52C377.836 6732.36 348.754 6581.52 598.788 6278.77C873.619 6072.85 1073 5743.63 1073 5611.67C1073 5534.7 966.394 5285.46 966.394 5285.46C966.394 5285.46 875.681 5011.37 966.394 4849.28C1072.57 4701.45 1073 4485.4 1073 4482.76C1073 4482.75 1073 4482.74 1073 4482.74C1073 4369.11 943.124 4192.96 808.324 3947.6C691.881 3685.65 683.144 3538.78 808.324 3276.84C991.01 3072.04 1045.19 2944.22 1073 2697.71C1068.61 2482.93 1062.49 2361.97 940.662 2129.58C869.532 1956.39 871.521 1859.26 940.662 1686.07C1030.24 1462.86 1057.57 1329.04 1073 1077.62Z" fill="#66ABEE"/>
<ellipse cx="647.999" cy="1127.5" rx="223" ry="223.5" fill="#66ABEE"/>
<path d="M750.999 4838C750.999 4931.89 675.335 5008 581.999 5008C488.662 5008 412.999 4931.89 412.999 4838C412.999 4744.11 488.662 4668 581.999 4668C675.335 4668 750.999 4744.11 750.999 4838Z" fill="#99CDFF"/>
<path d="M424.999 7110C424.999 7176.82 370.377 7231 302.999 7231C235.62 7231 180.999 7176.82 180.999 7110C180.999 7043.17 235.62 6989 302.999 6989C370.377 6989 424.999 7043.17 424.999 7110Z" fill="#99CDFF"/>
<ellipse cx="360.498" cy="4650.5" rx="224.5" ry="223.5" fill="#66ABEE"/>
<circle cx="782.998" cy="638.997" r="88" fill="#66ABEE"/>
<ellipse cx="738.498" cy="4427" rx="88.5" ry="87" fill="#66ABEE"/>
<rect x="1071" width="54" height="7503" fill="#66ABEE"/>
</svg>
